<?xml version="1.0" encoding="UTF-8" standalone="no"?>
<!-- Created with Inkscape (http://www.inkscape.org/) -->

<svg
   xmlns:dc="http://purl.org/dc/elements/1.1/"
   xmlns:cc="http://creativecommons.org/ns#"
   xmlns:rdf="http://www.w3.org/1999/02/22-rdf-syntax-ns#"
   xmlns:svg="http://www.w3.org/2000/svg"
   xmlns="http://www.w3.org/2000/svg"
   xmlns:sodipodi="http://sodipodi.sourceforge.net/DTD/sodipodi-0.dtd"
   xmlns:inkscape="http://www.inkscape.org/namespaces/inkscape"
   width="1.140496mm"
   height="1.0634208mm"
   viewBox="0 0 1.140496 1.0634208"
   version="1.1"
   id="svg8"
   inkscape:version="0.92.2 2405546, 2018-03-11"
   sodipodi:docname="drawing.svg">
  <defs
     id="defs2" />
  <sodipodi:namedview
     id="base"
     pagecolor="#ffffff"
     bordercolor="#666666"
     borderopacity="1.0"
     inkscape:pageopacity="0.0"
     inkscape:pageshadow="2"
     inkscape:zoom="8"
     inkscape:cx="14.701163"
     inkscape:cy="-2.5586847"
     inkscape:document-units="mm"
     inkscape:current-layer="layer1"
     showgrid="false"
     inkscape:window-width="1366"
     inkscape:window-height="718"
     inkscape:window-x="0"
     inkscape:window-y="26"
     inkscape:window-maximized="1" />
  <metadata
     id="metadata5">
    <rdf:RDF>
      <cc:Work
         rdf:about="">
        <dc:format>image/svg+xml</dc:format>
        <dc:type
           rdf:resource="http://purl.org/dc/dcmitype/StillImage" />
        <dc:title></dc:title>
      </cc:Work>
    </rdf:RDF>
  </metadata>
  <g
     inkscape:label="Layer 1"
     inkscape:groupmode="layer"
     id="layer1"
     transform="translate(-38.207398,-94.332445)">
    <path
       style="opacity:1;vector-effect:none;fill:#000000;fill-opacity:1;stroke:none;stroke-width:0.05415156;stroke-linecap:butt;stroke-linejoin:miter;stroke-miterlimit:4;stroke-dasharray:none;stroke-dashoffset:0;stroke-opacity:1"
       id="path4534"
       d="m 38.414676,94.74642 c 0.0575,0.03019 0.0909,0.08617 0.123802,0.13961 0.05011,0.100857 0.09289,0.205097 0.139874,0.30743 0.0083,0.01595 0.02003,0.0425 0.03387,0.05632 0.0039,0.0039 0.009,0.0084 0.01453,0.0083 0.0056,-7.7e-5 0.01931,-0.01132 0.01437,-0.0087 -0.06315,0.03395 -0.124783,0.07078 -0.189042,0.102576 -0.01024,0.0051 0.01749,-0.01468 0.02622,-0.02201 0.05603,-0.06012 0.08882,-0.135359 0.123145,-0.208765 0.04057,-0.09582 0.08408,-0.190269 0.128593,-0.284315 0.03589,-0.07037 0.06498,-0.144021 0.10278,-0.213411 0.02513,-0.0458 0.02014,-0.0505 0.05793,-0.08556 0.0295,-0.02702 0.08242,-0.0823 0.131642,-0.11241 0.06936,-0.04243 0.225504,-0.09304 0.225504,-0.09304 v 0 c -0.02873,0.02808 -0.0576,0.05602 -0.08723,0.08315 -0.03733,0.03424 -0.09868,0.09025 -0.137167,0.144323 -0.04678,0.06571 -0.07346,0.143637 -0.11117,0.214931 -0.04328,0.09336 -0.05597,0.151378 -0.09352,0.247247 -0.03444,0.07449 -0.06656,0.15049 -0.117943,0.215472 -0.0755,0.09231 -0.03699,0.052 -0.257186,0.157157 -0.0076,0.0036 -0.01709,-0.0021 -0.02445,-0.0063 -0.02674,-0.01482 -0.0345,-0.05494 -0.04786,-0.07865 -0.04194,-0.103047 -0.08385,-0.206685 -0.138348,-0.303863 -0.03318,-0.04957 -0.0672,-0.101391 -0.125622,-0.123145 l 0.20724,-0.136356 z"
       inkscape:connector-curvature="0"
       sodipodi:nodetypes="ccccccccccccacccacccccccccc" />
  </g>
</svg>
